{
    "asset" : {
        "generator" : "Khronos glTF Blender I/O v1.2.75",
        "version" : "2.0"
    },
    "scene" : 0,
    "scenes" : [
        {
            "name" : "Scene",
            "nodes" : [
                0,
                1,
                2,
                3
            ]
        }
    ],
    "nodes" : [
        {
            "name" : "Light",
            "rotation" : [
                0.16907575726509094,
                0.7558803558349609,
                -0.27217137813568115,
                0.570947527885437
            ],
            "translation" : [
                -0.08144998550415039,
                3.707551956176758,
                1.6745524406433105
            ]
        },
        {
            "name" : "Camera",
            "rotation" : [
                0.5117291808128357,
                0.005187582224607468,
                -0.003089617006480694,
                0.8591256141662598
            ],
            "translation" : [
                0.0017979592084884644,
                6.155276775360107,
                9.673548698425293
            ]
        },
        {
            "mesh" : 0,
            "name" : "\ud14d\uc2a4\ud2b8",
            "rotation" : [
                0.7071067690849304,
                0,
                0,
                0.7071067690849304
            ],
            "scale" : [
                1.5699341297149658,
                1.5699341297149658,
                1.5699341297149658
            ],
            "translation" : [
                -1.994004487991333,
                0.26882413029670715,
                -0.0020695968996733427
            ]
        },
        {
            "mesh" : 1,
            "name" : "\ud3c9\uba74",
            "scale" : [
                4.78031063079834,
                4.78031063079834,
                4.78031063079834
            ],
            "translation" : [
                -0.012971162796020508,
                -0.005337268114089966,
                0.1578088104724884
            ]
        }
    ],
    "materials" : [
        {
            "doubleSided" : true,
            "emissiveFactor" : [
                0,
                0,
                0
            ],
            "name" : "\ub9e4\ud14c\ub9ac\uc5bc",
            "pbrMetallicRoughness" : {
                "baseColorFactor" : [
                    0.01011746283620596,
                    0.1223168596625328,
                    0.8000000715255737,
                    1
                ],
                "metallicFactor" : 0,
                "roughnessFactor" : 0.5
            }
        }
    ],
    "meshes" : [
        {
            "name" : "\ud14d\uc2a4\ud2b8.001",
            "primitives" : [
                {
                    "attributes" : {
                        "POSITION" : 0,
                        "NORMAL" : 1,
                        "TEXCOORD_0" : 2
                    },
                    "indices" : 3,
                    "material" : 0
                }
            ]
        },
        {
            "name" : "\ud3c9\uba74",
            "primitives" : [
                {
                    "attributes" : {
                        "POSITION" : 4,
                        "NORMAL" : 5,
                        "TEXCOORD_0" : 6
                    },
                    "indices" : 7
                }
            ]
        }
    ],
    "accessors" : [
        {
            "bufferView" : 0,
            "componentType" : 5126,
            "count" : 37444,
            "max" : [
                2.4742043018341064,
                0.12000000476837158,
                0.14123085141181946
            ],
            "min" : [
                0.02815631590783596,
                -0.12000000476837158,
                -0.7323555946350098
            ],
            "type" : "VEC3"
        },
        {
            "bufferView" : 1,
            "componentType" : 5126,
            "count" : 37444,
            "type" : "VEC3"
        },
        {
            "bufferView" : 2,
            "componentType" : 5126,
            "count" : 37444,
            "type" : "VEC2"
        },
        {
            "bufferView" : 3,
            "componentType" : 5123,
            "count" : 182208,
            "type" : "SCALAR"
        },
        {
            "bufferView" : 4,
            "componentType" : 5126,
            "count" : 4,
            "max" : [
                1,
                0,
                1
            ],
            "min" : [
                -1,
                0,
                -1
            ],
            "type" : "VEC3"
        },
        {
            "bufferView" : 5,
            "componentType" : 5126,
            "count" : 4,
            "type" : "VEC3"
        },
        {
            "bufferView" : 6,
            "componentType" : 5126,
            "count" : 4,
            "type" : "VEC2"
        },
        {
            "bufferView" : 7,
            "componentType" : 5123,
            "count" : 6,
            "type" : "SCALAR"
        }
    ],
    "bufferViews" : [
        {
            "buffer" : 0,
            "byteLength" : 449328,
            "byteOffset" : 0
        },
        {
            "buffer" : 0,
            "byteLength" : 449328,
            "byteOffset" : 449328
        },
        {
            "buffer" : 0,
            "byteLength" : 299552,
            "byteOffset" : 898656
        },
        {
            "buffer" : 0,
            "byteLength" : 364416,
            "byteOffset" : 1198208
        },
        {
            "buffer" : 0,
            "byteLength" : 48,
            "byteOffset" : 1562624
        },
        {
            "buffer" : 0,
            "byteLength" : 48,
            "byteOffset" : 1562672
        },
        {
            "buffer" : 0,
            "byteLength" : 32,
            "byteOffset" : 1562720
        },
        {
            "buffer" : 0,
            "byteLength" : 12,
            "byteOffset" : 1562752
        }
    ],
    "buffers" : [
        {
            "byteLength" : 1562764,
            "uri" : "data:application/octet-stream;base64,"
        }
    ]
}
